<svg xmlns="http://www.w3.org/2000/svg" x="0px" y="0px"
width="40" height="40"
viewBox="0 0 172 172"
style=" fill:#000000;"><g fill="none" fill-rule="nonzero" stroke="none" stroke-width="1" stroke-linecap="butt" stroke-linejoin="miter" stroke-miterlimit="10" stroke-dasharray="" stroke-dashoffset="0" font-family="none" font-weight="none" font-size="none" text-anchor="none" style="mix-blend-mode: normal"><path d="M0,172v-172h172v172z" fill="none"></path><g><path d="M18.0901,152.65l11.0639,-11.0682l-1.4104,-1.5179c-13.7299,-14.749 -21.2936,-33.9528 -21.2936,-54.0639c0,-43.8643 35.6857,-79.55 79.55,-79.55c3.3368,0 6.8714,0.2666 10.75,0.817v17.3376c-3.6077,-0.6321 -7.2111,-0.9546 -10.75,-0.9546c-34.3785,0 -62.35,27.9715 -62.35,62.35c0,15.3854 5.7491,30.1989 16.1895,41.7143l1.5179,1.6727l12.3969,-12.3969v35.6599z" fill="#ffc300"></path><path d="M86,8.6c2.6961,0 5.5341,0.1806 8.6,0.5547v12.9387c-2.881,-0.3956 -5.7577,-0.5934 -8.6,-0.5934c-35.5653,0 -64.5,28.9347 -64.5,64.5c0,15.9186 5.9469,31.2481 16.7442,43.1591l3.0315,3.3454l3.1949,-3.1949l7.1294,-7.1294v28.3198h-28.3198l5.9297,-5.9297l2.9326,-2.9326l-2.8251,-3.0358c-13.3601,-14.3534 -20.7174,-33.0326 -20.7174,-52.6019c0,-42.6775 34.7225,-77.4 77.4,-77.4M86,4.3c-45.1199,0 -81.7,36.5801 -81.7,81.7c0,21.4742 8.3162,40.9661 21.8698,55.5302l-13.2698,13.2698h43v-43l-14.4695,14.4695c-9.6664,-10.664 -15.6305,-24.7379 -15.6305,-40.2695c0,-33.2476 26.9524,-60.2 60.2,-60.2c4.4333,0 8.7419,0.5117 12.9,1.419v-21.8053c-4.214,-0.6665 -8.5011,-1.1137 -12.9,-1.1137z" fill="#000000"></path><g><path d="M86,165.55c-3.3368,0 -6.8714,-0.2666 -10.75,-0.817v-17.3376c3.6077,0.6321 7.2111,0.9546 10.75,0.9546c34.3785,0 62.35,-27.9715 62.35,-62.35c0,-15.4069 -5.7448,-30.229 -16.1723,-41.7358l-1.5179,-1.6727l-12.4098,12.4184v-35.6599h35.6599l-11.0983,11.1026l1.4104,1.5222c13.7514,14.7748 21.328,33.9614 21.328,54.0252c0,43.8643 -35.6857,79.55 -79.55,79.55z" fill="#ffc300"></path><path d="M148.7198,21.5l-5.9641,5.9641l-2.9326,2.9326l2.8251,3.0358c13.3816,14.3792 20.7518,33.0498 20.7518,52.5675c0,42.6775 -34.7225,77.4 -77.4,77.4c-2.6961,0 -5.5341,-0.1806 -8.6,-0.5547v-12.9387c2.881,0.3956 5.7577,0.5934 8.6,0.5934c35.5653,0 64.5,-28.9347 64.5,-64.5c0,-15.9444 -5.9383,-31.2782 -16.727,-43.1763l-3.0315,-3.3454l-3.1949,3.1949l-7.1466,7.1466v-28.3198h28.3198M159.1,17.2h-43v43l14.4867,-14.4867c9.6707,10.664 15.6133,24.7551 15.6133,40.2867c0,33.2476 -26.9524,60.2 -60.2,60.2c-4.4333,0 -8.7419,-0.5117 -12.9,-1.419v21.8053c4.214,0.6665 8.5011,1.1137 12.9,1.1137c45.1199,0 81.7,-36.5801 81.7,-81.7c0,-21.4699 -8.3506,-40.9317 -21.9042,-55.4958l13.3042,-13.3042z" fill="#000000"></path></g></g></g></svg>