<?xml version="1.0" encoding="UTF-8"?>
<svg xmlns="http://www.w3.org/2000/svg" xmlns:xlink="http://www.w3.org/1999/xlink" viewBox="0 0 90 90" width="90px" height="90px">
<g id="surface20692636">
<path style=" stroke:none;fill-rule:nonzero;fill:rgb(8.627451%,8.627451%,8.627451%);fill-opacity:1;" d="M 45 9 C 34.410156 9 26.09375 12.039062 21.464844 19.398438 C 21.464844 19.402344 21.464844 19.40625 21.464844 19.40625 C 19.246094 22.933594 18.503906 27.050781 18.175781 30.332031 C 17.890625 33.191406 18.003906 34.875 18.03125 35.425781 L 15.429688 43.230469 C 13.691406 44.238281 9 47.285156 9 54 C 9 60.449219 13.246094 63.410156 15.175781 64.582031 C 15.21875 65.304688 15.171875 65.652344 15.433594 66.960938 C 15.867188 69.136719 16.671875 71.914062 18.878906 74.121094 C 22.714844 77.957031 29.550781 81 36.550781 81 C 39.949219 81 42.375 79.605469 44.144531 78 L 45.855469 78 C 47.625 79.605469 50.050781 81 53.449219 81 C 60.449219 81 67.285156 77.957031 71.121094 74.121094 C 73.328125 71.914062 74.132812 69.136719 74.566406 66.960938 C 74.828125 65.652344 74.78125 65.304688 74.824219 64.582031 C 76.753906 63.410156 81 60.449219 81 54 C 81 47.285156 76.308594 44.238281 74.574219 43.230469 L 71.972656 35.425781 C 71.996094 34.875 72.109375 33.191406 71.824219 30.332031 C 71.496094 27.050781 70.753906 22.933594 68.539062 19.40625 C 68.539062 19.40625 68.539062 19.402344 68.539062 19.398438 C 63.90625 12.039062 55.589844 9 45 9 Z M 45 15 C 54.535156 15 60.101562 17.253906 63.464844 22.601562 C 64.175781 23.738281 64.328125 25.445312 64.730469 27 L 25.273438 27 C 25.671875 25.445312 25.824219 23.738281 26.539062 22.601562 C 29.898438 17.253906 35.464844 15 45 15 Z M 24.082031 33 L 26.785156 33 C 26.367188 33.347656 26.082031 33.78125 26.082031 34.390625 C 26.082031 37.390625 27 42 30 42 C 32.035156 42 42 36.164062 42 33.859375 C 42 33.558594 41.5625 33.269531 40.9375 33 L 49.0625 33 C 48.4375 33.269531 48 33.558594 48 33.859375 C 48 36.164062 57.964844 42 60 42 C 63 42 63.917969 37.390625 63.917969 34.390625 C 63.917969 33.78125 63.632812 33.347656 63.214844 33 L 65.917969 33 C 65.9375 34.125 66.003906 35.820312 66.003906 35.820312 C 65.980469 36.203125 66.03125 36.585938 66.152344 36.949219 L 69.152344 45.949219 C 69.40625 46.703125 69.945312 47.328125 70.65625 47.683594 C 70.65625 47.683594 71.457031 48.171875 72.339844 48.933594 C 66.308594 50.949219 63.414062 55.484375 63.414062 55.484375 C 62.808594 56.410156 62.761719 57.59375 63.292969 58.566406 C 63.824219 59.535156 64.84375 60.136719 65.953125 60.128906 C 67.058594 60.117188 68.070312 59.5 68.585938 58.515625 C 68.585938 58.515625 70.238281 55.421875 74.960938 54.320312 C 74.726562 58.117188 70.660156 60.316406 70.660156 60.316406 C 69.640625 60.824219 69 61.863281 69 63 C 69 63 69 64.214844 68.683594 65.789062 C 68.367188 67.363281 67.671875 69.085938 66.878906 69.878906 C 64.757812 72 58.691406 74.875 53.742188 74.980469 L 52.867188 73.488281 C 52.457031 72.78125 51.777344 72.292969 51 72.097656 L 51 69 C 51 67.625 50.054688 66.511719 48.789062 66.15625 L 48.566406 65.273438 C 48.234375 63.9375 47.035156 63 45.65625 63 L 44.34375 63 C 42.964844 63 41.765625 63.9375 41.433594 65.273438 L 41.210938 66.15625 C 39.945312 66.511719 39 67.625 39 69 L 39 72.097656 C 38.222656 72.292969 37.542969 72.78125 37.132812 73.488281 L 36.257812 74.980469 C 31.308594 74.875 25.242188 72 23.121094 69.878906 C 22.328125 69.085938 21.632812 67.363281 21.316406 65.789062 C 21 64.214844 21 63 21 63 C 21 61.863281 20.359375 60.824219 19.34375 60.316406 C 19.34375 60.316406 15.273438 58.117188 15.042969 54.320312 C 19.761719 55.421875 21.417969 58.515625 21.417969 58.515625 C 21.929688 59.5 22.941406 60.117188 24.046875 60.128906 C 25.15625 60.136719 26.175781 59.535156 26.707031 58.566406 C 27.238281 57.59375 27.191406 56.410156 26.585938 55.480469 C 26.585938 55.480469 23.691406 50.949219 17.660156 48.929688 C 18.542969 48.171875 19.339844 47.683594 19.339844 47.683594 C 20.054688 47.328125 20.59375 46.703125 20.847656 45.949219 L 23.847656 36.949219 C 23.96875 36.585938 24.019531 36.203125 23.996094 35.816406 C 23.996094 35.816406 24.066406 34.125 24.082031 33 Z M 45 45 C 42.007812 45.003906 39.910156 46.449219 38.238281 47.929688 C 36.539062 49.367188 35.28125 50.925781 34.308594 51.15625 L 34.078125 51.210938 C 33.324219 51.390625 32.859375 52.152344 33.042969 52.90625 C 33.183594 53.515625 33.710938 53.933594 34.308594 53.976562 C 35.8125 54.082031 37.09375 53.46875 38.046875 52.980469 C 39.015625 52.46875 40.949219 51.003906 45.007812 51 C 49.0625 51 50.996094 52.46875 51.96875 52.980469 C 52.921875 53.46875 54.199219 54.082031 55.707031 53.976562 C 56.300781 53.933594 56.828125 53.515625 56.972656 52.90625 C 57.148438 52.148438 56.683594 51.386719 55.929688 51.210938 L 55.707031 51.15625 C 54.730469 50.925781 53.46875 49.367188 51.769531 47.929688 C 50.097656 46.449219 48.003906 45.007812 45.011719 45 Z M 30 63 C 28.34375 63 27 64.34375 27 66 C 27 67.65625 28.34375 69 30 69 C 31.65625 69 33 67.65625 33 66 C 33 64.34375 31.65625 63 30 63 Z M 60 63 C 58.34375 63 57 64.34375 57 66 C 57 67.65625 58.34375 69 60 69 C 61.65625 69 63 67.65625 63 66 C 63 64.34375 61.65625 63 60 63 Z M 60 63 "/>
</g>
</svg>
